<svg id="visual" viewBox="0 0 1920 1080" width="1920" height="1080" xmlns="http://www.w3.org/2000/svg" xmlns:xlink="http://www.w3.org/1999/xlink" version="1.1"><rect x="0" y="0" width="1920" height="1080" fill="#001220"></rect><path d="M0 781L45.7 780.5C91.3 780 182.7 779 274.2 787.3C365.7 795.7 457.3 813.3 548.8 809C640.3 804.7 731.7 778.3 823 779.2C914.3 780 1005.7 808 1097 827C1188.3 846 1279.7 856 1371.2 845.2C1462.7 834.3 1554.3 802.7 1645.8 790C1737.3 777.3 1828.7 783.7 1874.3 786.8L1920 790L1920 1081L1874.3 1081C1828.7 1081 1737.3 1081 1645.8 1081C1554.3 1081 1462.7 1081 1371.2 1081C1279.7 1081 1188.3 1081 1097 1081C1005.7 1081 914.3 1081 823 1081C731.7 1081 640.3 1081 548.8 1081C457.3 1081 365.7 1081 274.2 1081C182.7 1081 91.3 1081 45.7 1081L0 1081Z" fill="#4facf7"></path><path d="M0 873L45.7 878.2C91.3 883.3 182.7 893.7 274.2 893.5C365.7 893.3 457.3 882.7 548.8 867C640.3 851.3 731.7 830.7 823 839C914.3 847.3 1005.7 884.7 1097 885.3C1188.3 886 1279.7 850 1371.2 846.2C1462.7 842.3 1554.3 870.7 1645.8 889.5C1737.3 908.3 1828.7 917.7 1874.3 922.3L1920 927L1920 1081L1874.3 1081C1828.7 1081 1737.3 1081 1645.8 1081C1554.3 1081 1462.7 1081 1371.2 1081C1279.7 1081 1188.3 1081 1097 1081C1005.7 1081 914.3 1081 823 1081C731.7 1081 640.3 1081 548.8 1081C457.3 1081 365.7 1081 274.2 1081C182.7 1081 91.3 1081 45.7 1081L0 1081Z" fill="#1e97fd"></path><path d="M0 977L45.7 976.7C91.3 976.3 182.7 975.7 274.2 973C365.7 970.3 457.3 965.7 548.8 949.2C640.3 932.7 731.7 904.3 823 893.5C914.3 882.7 1005.7 889.3 1097 901.3C1188.3 913.3 1279.7 930.7 1371.2 933.7C1462.7 936.7 1554.3 925.3 1645.8 918.8C1737.3 912.3 1828.7 910.7 1874.3 909.8L1920 909L1920 1081L1874.3 1081C1828.7 1081 1737.3 1081 1645.8 1081C1554.3 1081 1462.7 1081 1371.2 1081C1279.7 1081 1188.3 1081 1097 1081C1005.7 1081 914.3 1081 823 1081C731.7 1081 640.3 1081 548.8 1081C457.3 1081 365.7 1081 274.2 1081C182.7 1081 91.3 1081 45.7 1081L0 1081Z" fill="#0080ff"></path><path d="M0 968L45.7 975.5C91.3 983 182.7 998 274.2 1008C365.7 1018 457.3 1023 548.8 1015.8C640.3 1008.7 731.7 989.3 823 987.7C914.3 986 1005.7 1002 1097 999.7C1188.3 997.3 1279.7 976.7 1371.2 974.8C1462.7 973 1554.3 990 1645.8 990.3C1737.3 990.7 1828.7 974.3 1874.3 966.2L1920 958L1920 1081L1874.3 1081C1828.7 1081 1737.3 1081 1645.8 1081C1554.3 1081 1462.7 1081 1371.2 1081C1279.7 1081 1188.3 1081 1097 1081C1005.7 1081 914.3 1081 823 1081C731.7 1081 640.3 1081 548.8 1081C457.3 1081 365.7 1081 274.2 1081C182.7 1081 91.3 1081 45.7 1081L0 1081Z" fill="#0066ff"></path></svg>