<svg id="visual" viewBox="0 0 1920 1080" width="1920" height="1080" xmlns="http://www.w3.org/2000/svg" xmlns:xlink="http://www.w3.org/1999/xlink" version="1.1"><rect x="0" y="0" width="1920" height="1080" fill="#001220"></rect><path d="M0 866L45.7 877.7C91.3 889.3 182.7 912.7 274.2 906C365.7 899.3 457.3 862.7 548.8 851.7C640.3 840.7 731.7 855.3 823 869.8C914.3 884.3 1005.7 898.7 1097 903.3C1188.3 908 1279.7 903 1371.2 899.5C1462.7 896 1554.3 894 1645.8 884.8C1737.3 875.7 1828.7 859.3 1874.3 851.2L1920 843L1920 1081L1874.3 1081C1828.7 1081 1737.3 1081 1645.8 1081C1554.3 1081 1462.7 1081 1371.2 1081C1279.7 1081 1188.3 1081 1097 1081C1005.7 1081 914.3 1081 823 1081C731.7 1081 640.3 1081 548.8 1081C457.3 1081 365.7 1081 274.2 1081C182.7 1081 91.3 1081 45.7 1081L0 1081Z" fill="#4facf7"></path><path d="M0 960L45.7 953.8C91.3 947.7 182.7 935.3 274.2 930.5C365.7 925.7 457.3 928.3 548.8 929.8C640.3 931.3 731.7 931.7 823 927.2C914.3 922.7 1005.7 913.3 1097 917.3C1188.3 921.3 1279.7 938.7 1371.2 950C1462.7 961.3 1554.3 966.7 1645.8 955.3C1737.3 944 1828.7 916 1874.3 902L1920 888L1920 1081L1874.3 1081C1828.7 1081 1737.3 1081 1645.8 1081C1554.3 1081 1462.7 1081 1371.2 1081C1279.7 1081 1188.3 1081 1097 1081C1005.7 1081 914.3 1081 823 1081C731.7 1081 640.3 1081 548.8 1081C457.3 1081 365.7 1081 274.2 1081C182.7 1081 91.3 1081 45.7 1081L0 1081Z" fill="#008cff"></path><path d="M0 1020L45.7 1023C91.3 1026 182.7 1032 274.2 1027.3C365.7 1022.7 457.3 1007.3 548.8 1004.7C640.3 1002 731.7 1012 823 1013.3C914.3 1014.7 1005.7 1007.3 1097 1001.8C1188.3 996.3 1279.7 992.7 1371.2 991.2C1462.7 989.7 1554.3 990.3 1645.8 989.3C1737.3 988.3 1828.7 985.7 1874.3 984.3L1920 983L1920 1081L1874.3 1081C1828.7 1081 1737.3 1081 1645.8 1081C1554.3 1081 1462.7 1081 1371.2 1081C1279.7 1081 1188.3 1081 1097 1081C1005.7 1081 914.3 1081 823 1081C731.7 1081 640.3 1081 548.8 1081C457.3 1081 365.7 1081 274.2 1081C182.7 1081 91.3 1081 45.7 1081L0 1081Z" fill="#0066ff"></path></svg>