<svg id="visual" viewBox="0 0 1920 1080" width="1920" height="1080" xmlns="http://www.w3.org/2000/svg" xmlns:xlink="http://www.w3.org/1999/xlink" version="1.1"><rect x="0" y="0" width="1920" height="1080" fill="#001220"></rect><path d="M0 293L45.7 280C91.3 267 182.7 241 274.2 235.8C365.7 230.7 457.3 246.3 548.8 247.8C640.3 249.3 731.7 236.7 823 249.3C914.3 262 1005.7 300 1097 300.3C1188.3 300.7 1279.7 263.3 1371.2 263.5C1462.7 263.7 1554.3 301.3 1645.8 318.3C1737.3 335.3 1828.7 331.7 1874.3 329.8L1920 328L1920 0L1874.3 0C1828.7 0 1737.3 0 1645.8 0C1554.3 0 1462.7 0 1371.2 0C1279.7 0 1188.3 0 1097 0C1005.7 0 914.3 0 823 0C731.7 0 640.3 0 548.8 0C457.3 0 365.7 0 274.2 0C182.7 0 91.3 0 45.7 0L0 0Z" fill="#4facf7"></path><path d="M0 207L45.7 208.8C91.3 210.7 182.7 214.3 274.2 224.3C365.7 234.3 457.3 250.7 548.8 260.2C640.3 269.7 731.7 272.3 823 267.2C914.3 262 1005.7 249 1097 237.8C1188.3 226.7 1279.7 217.3 1371.2 213.5C1462.7 209.7 1554.3 211.3 1645.8 213.8C1737.3 216.3 1828.7 219.7 1874.3 221.3L1920 223L1920 0L1874.3 0C1828.7 0 1737.3 0 1645.8 0C1554.3 0 1462.7 0 1371.2 0C1279.7 0 1188.3 0 1097 0C1005.7 0 914.3 0 823 0C731.7 0 640.3 0 548.8 0C457.3 0 365.7 0 274.2 0C182.7 0 91.3 0 45.7 0L0 0Z" fill="#1e97fd"></path><path d="M0 190L45.7 191.2C91.3 192.3 182.7 194.7 274.2 183.7C365.7 172.7 457.3 148.3 548.8 134.3C640.3 120.3 731.7 116.7 823 120.8C914.3 125 1005.7 137 1097 137.7C1188.3 138.3 1279.7 127.7 1371.2 133.8C1462.7 140 1554.3 163 1645.8 168.5C1737.3 174 1828.7 162 1874.3 156L1920 150L1920 0L1874.3 0C1828.7 0 1737.3 0 1645.8 0C1554.3 0 1462.7 0 1371.2 0C1279.7 0 1188.3 0 1097 0C1005.7 0 914.3 0 823 0C731.7 0 640.3 0 548.8 0C457.3 0 365.7 0 274.2 0C182.7 0 91.3 0 45.7 0L0 0Z" fill="#0080ff"></path><path d="M0 57L45.7 57.5C91.3 58 182.7 59 274.2 58C365.7 57 457.3 54 548.8 59.8C640.3 65.7 731.7 80.3 823 89.2C914.3 98 1005.7 101 1097 103.8C1188.3 106.7 1279.7 109.3 1371.2 104.8C1462.7 100.3 1554.3 88.7 1645.8 83C1737.3 77.3 1828.7 77.7 1874.3 77.8L1920 78L1920 0L1874.3 0C1828.7 0 1737.3 0 1645.8 0C1554.3 0 1462.7 0 1371.2 0C1279.7 0 1188.3 0 1097 0C1005.7 0 914.3 0 823 0C731.7 0 640.3 0 548.8 0C457.3 0 365.7 0 274.2 0C182.7 0 91.3 0 45.7 0L0 0Z" fill="#0066ff"></path></svg>